<?xml version="1.0" encoding="UTF-8" standalone="no"?>
<!DOCTYPE svg PUBLIC "-//W3C//DTD SVG 1.1//EN"
 "http://www.w3.org/Graphics/SVG/1.1/DTD/svg11.dtd">
<!-- Generated by graphviz version 14.1.4 (20260321.0153)
 -->
<!-- Title: jf_InitHttpResponse Pages: 1 -->
<svg width="339pt" height="28pt"
 viewBox="0.00 0.00 339.00 28.00" xmlns="http://www.w3.org/2000/svg" xmlns:xlink="http://www.w3.org/1999/xlink">
<g id="graph0" class="graph" transform="scale(1 1) rotate(0) translate(4 24)">
<title>jf_InitHttpResponse</title>
<!-- Node1 -->
<g id="Node000001" class="node">
<title>Node1</title>
<g id="a_Node000001"><a xlink:title="Initializes response struct.">
<polygon fill="#999999" stroke="#666666" points="330.75,-20 227.75,-20 227.75,0 330.75,0 330.75,-20"/>
<text xml:space="preserve" text-anchor="middle" x="279.25" y="-6.5" font-family="Helvetica,sans-Serif" font-size="10.00">jf_InitHttpResponse</text>
</a>
</g>
</g>
<!-- Node2 -->
<g id="Node000002" class="node">
<title>Node2</title>
<g id="a_Node000002"><a xlink:href="server_8c.html#a17a6205bea04995df9e8baf5ca55cb53" target="_top" xlink:title=" ">
<polygon fill="white" stroke="#666666" points="191.75,-20 109,-20 109,0 191.75,0 191.75,-20"/>
<text xml:space="preserve" text-anchor="middle" x="150.38" y="-6.5" font-family="Helvetica,sans-Serif" font-size="10.00">jf_HandleClient</text>
</a>
</g>
</g>
<!-- Node1&#45;&gt;Node2 -->
<g id="edge1_Node000001_Node000002" class="edge">
<title>Node1&#45;&gt;Node2</title>
<g id="a_edge1_Node000001_Node000002"><a xlink:title=" ">
<path fill="none" stroke="#63b8ff" d="M215.99,-10C207.88,-10 199.75,-10 192.12,-10"/>
<polygon fill="#63b8ff" stroke="#63b8ff" points="215.86,-13.5 225.86,-10 215.86,-6.5 215.86,-13.5"/>
</a>
</g>
</g>
<!-- Node3 -->
<g id="Node000003" class="node">
<title>Node3</title>
<g id="a_Node000003"><a xlink:href="server_8c.html#a81d883ca21d6ee510cf144a34b1ef5c9" target="_top" xlink:title="Accept loop.">
<polygon fill="white" stroke="#666666" points="73,-20 0,-20 0,0 73,0 73,-20"/>
<text xml:space="preserve" text-anchor="middle" x="36.5" y="-6.5" font-family="Helvetica,sans-Serif" font-size="10.00">jf_RunServer</text>
</a>
</g>
</g>
<!-- Node2&#45;&gt;Node3 -->
<g id="edge2_Node000002_Node000003" class="edge">
<title>Node2&#45;&gt;Node3</title>
<g id="a_edge2_Node000002_Node000003"><a xlink:title=" ">
<path fill="none" stroke="#63b8ff" d="M97.28,-10C89.13,-10 80.86,-10 73.18,-10"/>
<polygon fill="#63b8ff" stroke="#63b8ff" points="97.16,-13.5 107.16,-10 97.16,-6.5 97.16,-13.5"/>
</a>
</g>
</g>
</g>
</svg>
