<?xml version="1.0" encoding="UTF-8" standalone="no"?>
<!DOCTYPE svg PUBLIC "-//W3C//DTD SVG 1.1//EN"
 "http://www.w3.org/Graphics/SVG/1.1/DTD/svg11.dtd">
<!-- Generated by graphviz version 14.1.4 (20260321.0153)
 -->
<!-- Title: include/http.h Pages: 1 -->
<svg width="252pt" height="140pt"
 viewBox="0.00 0.00 252.00 140.00" xmlns="http://www.w3.org/2000/svg" xmlns:xlink="http://www.w3.org/1999/xlink">
<g id="graph0" class="graph" transform="scale(1 1) rotate(0) translate(4 136)">
<title>include/http.h</title>
<!-- Node1 -->
<g id="Node000001" class="node">
<title>Node1</title>
<g id="a_Node000001"><a xlink:title=" ">
<polygon fill="#999999" stroke="#666666" points="166.62,-132 92.12,-132 92.12,-112 166.62,-112 166.62,-132"/>
<text xml:space="preserve" text-anchor="middle" x="129.38" y="-118.5" font-family="Helvetica,sans-Serif" font-size="10.00">include/http.h</text>
</a>
</g>
</g>
<!-- Node2 -->
<g id="Node000002" class="node">
<title>Node2</title>
<g id="a_Node000002"><a xlink:href="router_8h.html" target="_top" xlink:title=" ">
<polygon fill="white" stroke="#666666" points="82.75,-76 0,-76 0,-56 82.75,-56 82.75,-76"/>
<text xml:space="preserve" text-anchor="middle" x="41.38" y="-62.5" font-family="Helvetica,sans-Serif" font-size="10.00">include/router.h</text>
</a>
</g>
</g>
<!-- Node1&#45;&gt;Node2 -->
<g id="edge1_Node000001_Node000002" class="edge">
<title>Node1&#45;&gt;Node2</title>
<g id="a_edge1_Node000001_Node000002"><a xlink:title=" ">
<path fill="none" stroke="#63b8ff" d="M104.62,-105.81C89.27,-96.39 70.03,-84.58 56.82,-76.48"/>
<polygon fill="#63b8ff" stroke="#63b8ff" points="102.4,-108.56 112.76,-110.8 106.06,-102.59 102.4,-108.56"/>
</a>
</g>
</g>
<!-- Node4 -->
<g id="Node000004" class="node">
<title>Node4</title>
<g id="a_Node000004"><a xlink:href="http_8c.html" target="_top" xlink:title=" ">
<polygon fill="white" stroke="#666666" points="158,-76 100.75,-76 100.75,-56 158,-56 158,-76"/>
<text xml:space="preserve" text-anchor="middle" x="129.38" y="-62.5" font-family="Helvetica,sans-Serif" font-size="10.00">src/http.c</text>
</a>
</g>
</g>
<!-- Node1&#45;&gt;Node4 -->
<g id="edge3_Node000001_Node000004" class="edge">
<title>Node1&#45;&gt;Node4</title>
<g id="a_edge3_Node000001_Node000004"><a xlink:title=" ">
<path fill="none" stroke="#63b8ff" d="M129.38,-100.13C129.38,-91.9 129.38,-82.85 129.38,-76.3"/>
<polygon fill="#63b8ff" stroke="#63b8ff" points="125.88,-100.08 129.38,-110.08 132.88,-100.08 125.88,-100.08"/>
</a>
</g>
</g>
<!-- Node5 -->
<g id="Node000005" class="node">
<title>Node5</title>
<g id="a_Node000005"><a xlink:href="server_8c.html" target="_top" xlink:title=" ">
<polygon fill="white" stroke="#666666" points="244.25,-76 176.5,-76 176.5,-56 244.25,-56 244.25,-76"/>
<text xml:space="preserve" text-anchor="middle" x="210.38" y="-62.5" font-family="Helvetica,sans-Serif" font-size="10.00">src/server.c</text>
</a>
</g>
</g>
<!-- Node1&#45;&gt;Node5 -->
<g id="edge4_Node000001_Node000005" class="edge">
<title>Node1&#45;&gt;Node5</title>
<g id="a_edge4_Node000001_Node000005"><a xlink:title=" ">
<path fill="none" stroke="#63b8ff" d="M152.97,-105.27C166.96,-95.94 184.23,-84.43 196.16,-76.48"/>
<polygon fill="#63b8ff" stroke="#63b8ff" points="151.12,-102.3 144.74,-110.75 155.01,-108.12 151.12,-102.3"/>
</a>
</g>
</g>
<!-- Node3 -->
<g id="Node000003" class="node">
<title>Node3</title>
<g id="a_Node000003"><a xlink:href="router_8c.html" target="_top" xlink:title=" ">
<polygon fill="white" stroke="#666666" points="74.12,-20 8.62,-20 8.62,0 74.12,0 74.12,-20"/>
<text xml:space="preserve" text-anchor="middle" x="41.38" y="-6.5" font-family="Helvetica,sans-Serif" font-size="10.00">src/router.c</text>
</a>
</g>
</g>
<!-- Node2&#45;&gt;Node3 -->
<g id="edge2_Node000002_Node000003" class="edge">
<title>Node2&#45;&gt;Node3</title>
<g id="a_edge2_Node000002_Node000003"><a xlink:title=" ">
<path fill="none" stroke="#63b8ff" d="M41.38,-44.13C41.38,-35.9 41.38,-26.85 41.38,-20.3"/>
<polygon fill="#63b8ff" stroke="#63b8ff" points="37.88,-44.08 41.38,-54.08 44.88,-44.08 37.88,-44.08"/>
</a>
</g>
</g>
</g>
</svg>
