<?xml version="1.0" encoding="UTF-8" standalone="no"?>
<!DOCTYPE svg PUBLIC "-//W3C//DTD SVG 1.1//EN"
 "http://www.w3.org/Graphics/SVG/1.1/DTD/svg11.dtd">
<!-- Generated by graphviz version 14.1.4 (20260321.0153)
 -->
<!-- Title: src/server.c Pages: 1 -->
<svg width="564pt" height="140pt"
 viewBox="0.00 0.00 564.00 140.00" xmlns="http://www.w3.org/2000/svg" xmlns:xlink="http://www.w3.org/1999/xlink">
<g id="graph0" class="graph" transform="scale(1 1) rotate(0) translate(4 136)">
<title>src/server.c</title>
<!-- Node1 -->
<g id="Node000001" class="node">
<title>Node1</title>
<g id="a_Node000001"><a xlink:title=" ">
<polygon fill="#999999" stroke="#666666" points="323.62,-132 255.88,-132 255.88,-112 323.62,-112 323.62,-132"/>
<text xml:space="preserve" text-anchor="middle" x="289.75" y="-118.5" font-family="Helvetica,sans-Serif" font-size="10.00">src/server.c</text>
</a>
</g>
</g>
<!-- Node2 -->
<g id="Node000002" class="node">
<title>Node2</title>
<g id="a_Node000002"><a xlink:title=" ">
<polygon fill="#e0e0e0" stroke="#999999" points="47.5,-76 0,-76 0,-56 47.5,-56 47.5,-76"/>
<text xml:space="preserve" text-anchor="middle" x="23.75" y="-62.5" font-family="Helvetica,sans-Serif" font-size="10.00">stdlib.h</text>
</a>
</g>
</g>
<!-- Node1&#45;&gt;Node2 -->
<g id="edge1_Node000001_Node000002" class="edge">
<title>Node1&#45;&gt;Node2</title>
<g id="a_edge1_Node000001_Node000002"><a xlink:title=" ">
<path fill="none" stroke="#63b8ff" d="M255.62,-115.24C212.2,-107.73 134.68,-93.73 59,-76.38"/>
<polygon fill="#63b8ff" stroke="#63b8ff" points="59.85,-72.99 49.32,-74.14 58.27,-79.81 59.85,-72.99"/>
</a>
</g>
</g>
<!-- Node3 -->
<g id="Node000003" class="node">
<title>Node3</title>
<g id="a_Node000003"><a xlink:title=" ">
<polygon fill="#e0e0e0" stroke="#999999" points="113.88,-76 65.62,-76 65.62,-56 113.88,-56 113.88,-76"/>
<text xml:space="preserve" text-anchor="middle" x="89.75" y="-62.5" font-family="Helvetica,sans-Serif" font-size="10.00">string.h</text>
</a>
</g>
</g>
<!-- Node1&#45;&gt;Node3 -->
<g id="edge2_Node000001_Node000003" class="edge">
<title>Node1&#45;&gt;Node3</title>
<g id="a_edge2_Node000001_Node000003"><a xlink:title=" ">
<path fill="none" stroke="#63b8ff" d="M255.52,-111.81C224,-103.34 175.65,-90.33 125.08,-76.63"/>
<polygon fill="#63b8ff" stroke="#63b8ff" points="126.28,-73.33 115.72,-74.09 124.45,-80.08 126.28,-73.33"/>
</a>
</g>
</g>
<!-- Node4 -->
<g id="Node000004" class="node">
<title>Node4</title>
<g id="a_Node000004"><a xlink:title=" ">
<polygon fill="#e0e0e0" stroke="#999999" points="182,-76 131.5,-76 131.5,-56 182,-56 182,-76"/>
<text xml:space="preserve" text-anchor="middle" x="156.75" y="-62.5" font-family="Helvetica,sans-Serif" font-size="10.00">unistd.h</text>
</a>
</g>
</g>
<!-- Node1&#45;&gt;Node4 -->
<g id="edge3_Node000001_Node000004" class="edge">
<title>Node1&#45;&gt;Node4</title>
<g id="a_edge3_Node000001_Node000004"><a xlink:title=" ">
<path fill="none" stroke="#63b8ff" d="M266.58,-111.59C245.54,-103.05 214.25,-90.35 190.45,-80.68"/>
<polygon fill="#63b8ff" stroke="#63b8ff" points="192.08,-77.57 181.5,-77.05 189.45,-84.05 192.08,-77.57"/>
</a>
</g>
</g>
<!-- Node5 -->
<g id="Node000005" class="node">
<title>Node5</title>
<g id="a_Node000005"><a xlink:title=" ">
<polygon fill="#e0e0e0" stroke="#999999" points="261.62,-76 199.88,-76 199.88,-56 261.62,-56 261.62,-76"/>
<text xml:space="preserve" text-anchor="middle" x="230.75" y="-62.5" font-family="Helvetica,sans-Serif" font-size="10.00">arpa/inet.h</text>
</a>
</g>
</g>
<!-- Node1&#45;&gt;Node5 -->
<g id="edge4_Node000001_Node000005" class="edge">
<title>Node1&#45;&gt;Node5</title>
<g id="a_edge4_Node000001_Node000005"><a xlink:title=" ">
<path fill="none" stroke="#63b8ff" d="M279.47,-111.59C271.18,-104.01 259.3,-93.13 249.35,-84.02"/>
<polygon fill="#63b8ff" stroke="#63b8ff" points="251.77,-81.49 242.03,-77.32 247.04,-86.65 251.77,-81.49"/>
</a>
</g>
</g>
<!-- Node6 -->
<g id="Node000006" class="node">
<title>Node6</title>
<g id="a_Node000006"><a xlink:href="http_8h.html" target="_top" xlink:title=" ">
<polygon fill="white" stroke="#666666" points="358.12,-76 317.38,-76 317.38,-56 358.12,-56 358.12,-76"/>
<text xml:space="preserve" text-anchor="middle" x="337.75" y="-62.5" font-family="Helvetica,sans-Serif" font-size="10.00">http.h</text>
</a>
</g>
</g>
<!-- Node1&#45;&gt;Node6 -->
<g id="edge5_Node000001_Node000006" class="edge">
<title>Node1&#45;&gt;Node6</title>
<g id="a_edge5_Node000001_Node000006"><a xlink:title=" ">
<path fill="none" stroke="#63b8ff" d="M298.11,-111.59C304.65,-104.24 313.93,-93.8 321.87,-84.87"/>
<polygon fill="#63b8ff" stroke="#63b8ff" points="324.45,-87.23 328.48,-77.43 319.22,-82.58 324.45,-87.23"/>
</a>
</g>
</g>
<!-- Node7 -->
<g id="Node000007" class="node">
<title>Node7</title>
<g id="a_Node000007"><a xlink:title=" ">
<polygon fill="#e0e0e0" stroke="#999999" points="327.38,-20 276.12,-20 276.12,0 327.38,0 327.38,-20"/>
<text xml:space="preserve" text-anchor="middle" x="301.75" y="-6.5" font-family="Helvetica,sans-Serif" font-size="10.00">stddef.h</text>
</a>
</g>
</g>
<!-- Node1&#45;&gt;Node7 -->
<g id="edge12_Node000001_Node000007" class="edge">
<title>Node1&#45;&gt;Node7</title>
<g id="a_edge12_Node000001_Node000007"><a xlink:title=" ">
<path fill="none" stroke="#63b8ff" d="M290.77,-111.62C292.69,-94.01 296.89,-55.59 299.5,-31.65"/>
<polygon fill="#63b8ff" stroke="#63b8ff" points="302.96,-32.18 300.57,-21.86 296,-31.42 302.96,-32.18"/>
</a>
</g>
</g>
<!-- Node9 -->
<g id="Node000009" class="node">
<title>Node9</title>
<g id="a_Node000009"><a xlink:title=" ">
<polygon fill="#e0e0e0" stroke="#999999" points="484.75,-20 420.75,-20 420.75,0 484.75,0 484.75,-20"/>
<text xml:space="preserve" text-anchor="middle" x="452.75" y="-6.5" font-family="Helvetica,sans-Serif" font-size="10.00">netinet/in.h</text>
</a>
</g>
</g>
<!-- Node1&#45;&gt;Node9 -->
<g id="edge8_Node000001_Node000009" class="edge">
<title>Node1&#45;&gt;Node9</title>
<g id="a_edge8_Node000001_Node000009"><a xlink:title=" ">
<path fill="none" stroke="#63b8ff" d="M323.88,-119.85C357.32,-116.85 407.41,-107.03 436.75,-76 447.99,-64.11 451.71,-45.65 452.78,-31.43"/>
<polygon fill="#63b8ff" stroke="#63b8ff" points="456.26,-31.93 453.1,-21.81 449.26,-31.69 456.26,-31.93"/>
</a>
</g>
</g>
<!-- Node10 -->
<g id="Node000010" class="node">
<title>Node10</title>
<g id="a_Node000010"><a xlink:href="server_8h.html" target="_top" xlink:title=" ">
<polygon fill="white" stroke="#666666" points="427.38,-76 376.12,-76 376.12,-56 427.38,-56 427.38,-76"/>
<text xml:space="preserve" text-anchor="middle" x="401.75" y="-62.5" font-family="Helvetica,sans-Serif" font-size="10.00">server.h</text>
</a>
</g>
</g>
<!-- Node1&#45;&gt;Node10 -->
<g id="edge9_Node000001_Node000010" class="edge">
<title>Node1&#45;&gt;Node10</title>
<g id="a_edge9_Node000001_Node000010"><a xlink:title=" ">
<path fill="none" stroke="#63b8ff" d="M309.26,-111.59C326.5,-103.28 351.91,-91.03 371.74,-81.47"/>
<polygon fill="#63b8ff" stroke="#63b8ff" points="373.24,-84.63 380.73,-77.14 370.2,-78.33 373.24,-84.63"/>
</a>
</g>
</g>
<!-- Node11 -->
<g id="Node000011" class="node">
<title>Node11</title>
<g id="a_Node000011"><a xlink:title=" ">
<polygon fill="#e0e0e0" stroke="#999999" points="555.88,-76 483.62,-76 483.62,-56 555.88,-56 555.88,-76"/>
<text xml:space="preserve" text-anchor="middle" x="519.75" y="-62.5" font-family="Helvetica,sans-Serif" font-size="10.00">sys/socket.h</text>
</a>
</g>
</g>
<!-- Node1&#45;&gt;Node11 -->
<g id="edge13_Node000001_Node000011" class="edge">
<title>Node1&#45;&gt;Node11</title>
<g id="a_edge13_Node000001_Node000011"><a xlink:title=" ">
<path fill="none" stroke="#63b8ff" d="M323.69,-113.03C363,-103.8 428.03,-88.53 472.33,-78.13"/>
<polygon fill="#63b8ff" stroke="#63b8ff" points="472.98,-81.58 481.92,-75.88 471.38,-74.76 472.98,-81.58"/>
</a>
</g>
</g>
<!-- Node6&#45;&gt;Node7 -->
<g id="edge6_Node000006_Node000007" class="edge">
<title>Node6&#45;&gt;Node7</title>
<g id="a_edge6_Node000006_Node000007"><a xlink:title=" ">
<path fill="none" stroke="#63b8ff" d="M331.48,-55.59C326.73,-48.47 320.05,-38.45 314.23,-29.72"/>
<polygon fill="#63b8ff" stroke="#63b8ff" points="317.25,-27.94 308.79,-21.56 311.42,-31.82 317.25,-27.94"/>
</a>
</g>
</g>
<!-- Node8 -->
<g id="Node000008" class="node">
<title>Node8</title>
<g id="a_Node000008"><a xlink:title=" ">
<polygon fill="#e0e0e0" stroke="#999999" points="399.88,-20 351.62,-20 351.62,0 399.88,0 399.88,-20"/>
<text xml:space="preserve" text-anchor="middle" x="375.75" y="-6.5" font-family="Helvetica,sans-Serif" font-size="10.00">stdint.h</text>
</a>
</g>
</g>
<!-- Node6&#45;&gt;Node8 -->
<g id="edge7_Node000006_Node000008" class="edge">
<title>Node6&#45;&gt;Node8</title>
<g id="a_edge7_Node000006_Node000008"><a xlink:title=" ">
<path fill="none" stroke="#63b8ff" d="M344.37,-55.59C349.44,-48.39 356.59,-38.23 362.78,-29.43"/>
<polygon fill="#63b8ff" stroke="#63b8ff" points="365.44,-31.73 368.34,-21.54 359.72,-27.7 365.44,-31.73"/>
</a>
</g>
</g>
<!-- Node10&#45;&gt;Node8 -->
<g id="edge11_Node000010_Node000008" class="edge">
<title>Node10&#45;&gt;Node8</title>
<g id="a_edge11_Node000010_Node000008"><a xlink:title=" ">
<path fill="none" stroke="#63b8ff" d="M397.22,-55.59C393.9,-48.7 389.28,-39.1 385.17,-30.57"/>
<polygon fill="#63b8ff" stroke="#63b8ff" points="388.38,-29.15 380.88,-21.66 382.07,-32.19 388.38,-29.15"/>
</a>
</g>
</g>
<!-- Node10&#45;&gt;Node9 -->
<g id="edge10_Node000010_Node000009" class="edge">
<title>Node10&#45;&gt;Node9</title>
<g id="a_edge10_Node000010_Node000009"><a xlink:title=" ">
<path fill="none" stroke="#63b8ff" d="M410.63,-55.59C417.65,-48.16 427.65,-37.58 436.14,-28.58"/>
<polygon fill="#63b8ff" stroke="#63b8ff" points="438.61,-31.07 442.93,-21.4 433.52,-26.27 438.61,-31.07"/>
</a>
</g>
</g>
</g>
</svg>
